<mxfile host="app.diagrams.net" modified="2022-11-15T11:35:49.746Z" agent="5.0 (Windows NT 10.0; Win64; x64) AppleWebKit/537.36 (KHTML, like Gecko) Chrome/107.0.0.0 Safari/537.36 Edg/107.0.1418.42" etag="FSUpMR-PeqbdNdrj-RzK" version="20.5.1" type="github">
  <diagram id="C5RBs43oDa-KdzZeNtuy" name="Page-1">
    <mxGraphModel dx="1107" dy="784" grid="1" gridSize="10" guides="1" tooltips="1" connect="1" arrows="1" fold="1" page="1" pageScale="1" pageWidth="827" pageHeight="1169" math="0" shadow="0">
      <root>
        <mxCell id="WIyWlLk6GJQsqaUBKTNV-0" />
        <mxCell id="WIyWlLk6GJQsqaUBKTNV-1" parent="WIyWlLk6GJQsqaUBKTNV-0" />
        <mxCell id="xVkER2jbqTy8RfKpjxE--3" style="edgeStyle=orthogonalEdgeStyle;rounded=0;orthogonalLoop=1;jettySize=auto;html=1;exitX=0.5;exitY=1;exitDx=0;exitDy=0;fontSize=10;" edge="1" parent="WIyWlLk6GJQsqaUBKTNV-1" source="xVkER2jbqTy8RfKpjxE--0" target="xVkER2jbqTy8RfKpjxE--2">
          <mxGeometry relative="1" as="geometry" />
        </mxCell>
        <mxCell id="xVkER2jbqTy8RfKpjxE--5" style="edgeStyle=orthogonalEdgeStyle;rounded=0;orthogonalLoop=1;jettySize=auto;html=1;fontFamily=Verdana;fontSize=10;entryX=0;entryY=0.5;entryDx=0;entryDy=0;" edge="1" parent="WIyWlLk6GJQsqaUBKTNV-1" source="xVkER2jbqTy8RfKpjxE--0" target="xVkER2jbqTy8RfKpjxE--1">
          <mxGeometry relative="1" as="geometry">
            <mxPoint x="90" y="365" as="targetPoint" />
            <Array as="points">
              <mxPoint x="130" y="120" />
              <mxPoint x="130" y="500" />
            </Array>
          </mxGeometry>
        </mxCell>
        <mxCell id="xVkER2jbqTy8RfKpjxE--0" value="&lt;p align=&quot;center&quot; class=&quot;MsoNormal&quot;&gt;&lt;span style=&quot;font-family: Arial;&quot;&gt;&lt;font style=&quot;font-size: 10px;&quot;&gt;&lt;b&gt;FactoryMethodGUI&lt;/b&gt;&lt;/font&gt;&lt;/span&gt;&lt;b&gt;&lt;span style=&quot;font-family: Arial; font-size: 14pt;&quot;&gt;&lt;/span&gt;&lt;/b&gt;&lt;/p&gt;" style="html=1;" vertex="1" parent="WIyWlLk6GJQsqaUBKTNV-1">
          <mxGeometry x="160" y="100" width="110" height="50" as="geometry" />
        </mxCell>
        <mxCell id="xVkER2jbqTy8RfKpjxE--1" value="«interface»&lt;br&gt;&lt;b style=&quot;font-family: Verdana; background-color: initial;&quot;&gt;A&lt;/b&gt;&lt;b style=&quot;font-family: Verdana; background-color: initial;&quot;&gt;utoInsurance&lt;br&gt;&lt;/b&gt;&lt;p class=&quot;MsoNormal&quot;&gt;&lt;span style=&quot;font-family: Arial;&quot;&gt;&lt;font style=&quot;font-size: 10px;&quot;&gt;getInsurDescription()&lt;/font&gt;&lt;/span&gt;&lt;b&gt;&lt;span style=&quot;font-family: Arial; font-size: 9.5pt;&quot;&gt;&lt;/span&gt;&lt;/b&gt;&lt;/p&gt;" style="html=1;fontSize=10;" vertex="1" parent="WIyWlLk6GJQsqaUBKTNV-1">
          <mxGeometry x="140" y="470" width="140" height="60" as="geometry" />
        </mxCell>
        <mxCell id="xVkER2jbqTy8RfKpjxE--2" value="«interface»&lt;br&gt;&lt;b&gt;PolicyProducer&lt;br&gt;&lt;/b&gt;getPolicyObj()" style="html=1;fontSize=10;" vertex="1" parent="WIyWlLk6GJQsqaUBKTNV-1">
          <mxGeometry x="160" y="280" width="110" height="50" as="geometry" />
        </mxCell>
        <mxCell id="xVkER2jbqTy8RfKpjxE--32" style="edgeStyle=orthogonalEdgeStyle;rounded=0;orthogonalLoop=1;jettySize=auto;html=1;fontFamily=Verdana;fontSize=10;entryX=1;entryY=0.5;entryDx=0;entryDy=0;endArrow=block;endFill=0;" edge="1" parent="WIyWlLk6GJQsqaUBKTNV-1" source="xVkER2jbqTy8RfKpjxE--6" target="xVkER2jbqTy8RfKpjxE--2">
          <mxGeometry relative="1" as="geometry">
            <mxPoint x="280" y="310" as="targetPoint" />
            <Array as="points">
              <mxPoint x="320" y="50" />
              <mxPoint x="320" y="310" />
              <mxPoint x="280" y="310" />
              <mxPoint x="280" y="305" />
            </Array>
          </mxGeometry>
        </mxCell>
        <mxCell id="xVkER2jbqTy8RfKpjxE--95" style="edgeStyle=orthogonalEdgeStyle;rounded=0;orthogonalLoop=1;jettySize=auto;html=1;exitX=1;exitY=0.5;exitDx=0;exitDy=0;entryX=0.992;entryY=-0.142;entryDx=0;entryDy=0;entryPerimeter=0;fontFamily=Verdana;fontSize=10;endArrow=blockThin;endFill=1;" edge="1" parent="WIyWlLk6GJQsqaUBKTNV-1" source="xVkER2jbqTy8RfKpjxE--6" target="xVkER2jbqTy8RfKpjxE--65">
          <mxGeometry relative="1" as="geometry">
            <Array as="points">
              <mxPoint x="680" y="50" />
              <mxPoint x="680" y="720" />
            </Array>
          </mxGeometry>
        </mxCell>
        <mxCell id="xVkER2jbqTy8RfKpjxE--6" value="LuxuryCarPolicyProducer&#xa;" style="swimlane;fontStyle=1;align=center;verticalAlign=top;childLayout=stackLayout;horizontal=1;startSize=26;horizontalStack=0;resizeParent=1;resizeParentMax=0;resizeLast=0;collapsible=1;marginBottom=0;fontFamily=Verdana;fontSize=10;" vertex="1" parent="WIyWlLk6GJQsqaUBKTNV-1">
          <mxGeometry x="380" y="20" width="140" height="60" as="geometry" />
        </mxCell>
        <mxCell id="xVkER2jbqTy8RfKpjxE--8" value="" style="line;strokeWidth=1;fillColor=none;align=left;verticalAlign=middle;spacingTop=-1;spacingLeft=3;spacingRight=3;rotatable=0;labelPosition=right;points=[];portConstraint=eastwest;strokeColor=inherit;fontFamily=Verdana;fontSize=10;" vertex="1" parent="xVkER2jbqTy8RfKpjxE--6">
          <mxGeometry y="26" width="140" height="8" as="geometry" />
        </mxCell>
        <mxCell id="xVkER2jbqTy8RfKpjxE--9" value="getPolicyObj()" style="text;strokeColor=none;fillColor=none;align=left;verticalAlign=top;spacingLeft=4;spacingRight=4;overflow=hidden;rotatable=0;points=[[0,0.5],[1,0.5]];portConstraint=eastwest;fontFamily=Verdana;fontSize=10;" vertex="1" parent="xVkER2jbqTy8RfKpjxE--6">
          <mxGeometry y="34" width="140" height="26" as="geometry" />
        </mxCell>
        <mxCell id="xVkER2jbqTy8RfKpjxE--40" style="edgeStyle=orthogonalEdgeStyle;rounded=0;orthogonalLoop=1;jettySize=auto;html=1;exitX=0;exitY=0.5;exitDx=0;exitDy=0;fontFamily=Verdana;fontSize=10;endArrow=baseDash;endFill=0;" edge="1" parent="WIyWlLk6GJQsqaUBKTNV-1" source="xVkER2jbqTy8RfKpjxE--20">
          <mxGeometry relative="1" as="geometry">
            <mxPoint x="320" y="130" as="targetPoint" />
            <Array as="points">
              <mxPoint x="350" y="125" />
              <mxPoint x="350" y="130" />
            </Array>
          </mxGeometry>
        </mxCell>
        <mxCell id="xVkER2jbqTy8RfKpjxE--91" style="edgeStyle=orthogonalEdgeStyle;rounded=0;orthogonalLoop=1;jettySize=auto;html=1;fontFamily=Verdana;fontSize=10;endArrow=blockThin;endFill=1;" edge="1" parent="WIyWlLk6GJQsqaUBKTNV-1" source="xVkER2jbqTy8RfKpjxE--20">
          <mxGeometry relative="1" as="geometry">
            <mxPoint x="520" y="440" as="targetPoint" />
            <Array as="points">
              <mxPoint x="650" y="125" />
              <mxPoint x="650" y="440" />
              <mxPoint x="523" y="440" />
            </Array>
          </mxGeometry>
        </mxCell>
        <mxCell id="xVkER2jbqTy8RfKpjxE--20" value="BodyInjurPolicyProducer" style="swimlane;fontStyle=1;align=center;verticalAlign=top;childLayout=stackLayout;horizontal=1;startSize=26;horizontalStack=0;resizeParent=1;resizeParentMax=0;resizeLast=0;collapsible=1;marginBottom=0;fontFamily=Verdana;fontSize=10;" vertex="1" parent="WIyWlLk6GJQsqaUBKTNV-1">
          <mxGeometry x="380" y="95" width="140" height="60" as="geometry" />
        </mxCell>
        <mxCell id="xVkER2jbqTy8RfKpjxE--21" value="" style="line;strokeWidth=1;fillColor=none;align=left;verticalAlign=middle;spacingTop=-1;spacingLeft=3;spacingRight=3;rotatable=0;labelPosition=right;points=[];portConstraint=eastwest;strokeColor=inherit;fontFamily=Verdana;fontSize=10;" vertex="1" parent="xVkER2jbqTy8RfKpjxE--20">
          <mxGeometry y="26" width="140" height="8" as="geometry" />
        </mxCell>
        <mxCell id="xVkER2jbqTy8RfKpjxE--22" value="getPolicyObj()" style="text;strokeColor=none;fillColor=none;align=left;verticalAlign=top;spacingLeft=4;spacingRight=4;overflow=hidden;rotatable=0;points=[[0,0.5],[1,0.5]];portConstraint=eastwest;fontFamily=Verdana;fontSize=10;" vertex="1" parent="xVkER2jbqTy8RfKpjxE--20">
          <mxGeometry y="34" width="140" height="26" as="geometry" />
        </mxCell>
        <mxCell id="xVkER2jbqTy8RfKpjxE--44" style="edgeStyle=orthogonalEdgeStyle;rounded=0;orthogonalLoop=1;jettySize=auto;html=1;fontFamily=Verdana;fontSize=10;endArrow=baseDash;endFill=0;" edge="1" parent="WIyWlLk6GJQsqaUBKTNV-1" source="xVkER2jbqTy8RfKpjxE--23">
          <mxGeometry relative="1" as="geometry">
            <mxPoint x="320" y="230" as="targetPoint" />
          </mxGeometry>
        </mxCell>
        <mxCell id="xVkER2jbqTy8RfKpjxE--92" style="edgeStyle=orthogonalEdgeStyle;rounded=0;orthogonalLoop=1;jettySize=auto;html=1;exitX=1;exitY=0.5;exitDx=0;exitDy=0;entryX=1.009;entryY=-0.059;entryDx=0;entryDy=0;entryPerimeter=0;fontFamily=Verdana;fontSize=10;endArrow=blockThin;endFill=1;" edge="1" parent="WIyWlLk6GJQsqaUBKTNV-1" source="xVkER2jbqTy8RfKpjxE--23" target="xVkER2jbqTy8RfKpjxE--56">
          <mxGeometry relative="1" as="geometry" />
        </mxCell>
        <mxCell id="xVkER2jbqTy8RfKpjxE--23" value="CollisionPolicyProducer" style="swimlane;fontStyle=1;align=center;verticalAlign=top;childLayout=stackLayout;horizontal=1;startSize=26;horizontalStack=0;resizeParent=1;resizeParentMax=0;resizeLast=0;collapsible=1;marginBottom=0;fontFamily=Verdana;fontSize=10;" vertex="1" parent="WIyWlLk6GJQsqaUBKTNV-1">
          <mxGeometry x="380" y="170" width="140" height="60" as="geometry" />
        </mxCell>
        <mxCell id="xVkER2jbqTy8RfKpjxE--24" value="" style="line;strokeWidth=1;fillColor=none;align=left;verticalAlign=middle;spacingTop=-1;spacingLeft=3;spacingRight=3;rotatable=0;labelPosition=right;points=[];portConstraint=eastwest;strokeColor=inherit;fontFamily=Verdana;fontSize=10;" vertex="1" parent="xVkER2jbqTy8RfKpjxE--23">
          <mxGeometry y="26" width="140" height="8" as="geometry" />
        </mxCell>
        <mxCell id="xVkER2jbqTy8RfKpjxE--25" value="getPolicyObj()" style="text;strokeColor=none;fillColor=none;align=left;verticalAlign=top;spacingLeft=4;spacingRight=4;overflow=hidden;rotatable=0;points=[[0,0.5],[1,0.5]];portConstraint=eastwest;fontFamily=Verdana;fontSize=10;" vertex="1" parent="xVkER2jbqTy8RfKpjxE--23">
          <mxGeometry y="34" width="140" height="26" as="geometry" />
        </mxCell>
        <mxCell id="xVkER2jbqTy8RfKpjxE--94" style="edgeStyle=orthogonalEdgeStyle;rounded=0;orthogonalLoop=1;jettySize=auto;html=1;exitX=1;exitY=0.5;exitDx=0;exitDy=0;entryX=1.031;entryY=-0.044;entryDx=0;entryDy=0;entryPerimeter=0;fontFamily=Verdana;fontSize=10;endArrow=blockThin;endFill=1;" edge="1" parent="WIyWlLk6GJQsqaUBKTNV-1" source="xVkER2jbqTy8RfKpjxE--26" target="xVkER2jbqTy8RfKpjxE--62">
          <mxGeometry relative="1" as="geometry">
            <Array as="points">
              <mxPoint x="600" y="340" />
              <mxPoint x="600" y="653" />
            </Array>
          </mxGeometry>
        </mxCell>
        <mxCell id="xVkER2jbqTy8RfKpjxE--26" value="PersonInjuryPolicyProducer" style="swimlane;fontStyle=1;align=center;verticalAlign=top;childLayout=stackLayout;horizontal=1;startSize=26;horizontalStack=0;resizeParent=1;resizeParentMax=0;resizeLast=0;collapsible=1;marginBottom=0;fontFamily=Verdana;fontSize=10;" vertex="1" parent="WIyWlLk6GJQsqaUBKTNV-1">
          <mxGeometry x="380" y="310" width="140" height="60" as="geometry" />
        </mxCell>
        <mxCell id="xVkER2jbqTy8RfKpjxE--27" value="" style="line;strokeWidth=1;fillColor=none;align=left;verticalAlign=middle;spacingTop=-1;spacingLeft=3;spacingRight=3;rotatable=0;labelPosition=right;points=[];portConstraint=eastwest;strokeColor=inherit;fontFamily=Verdana;fontSize=10;" vertex="1" parent="xVkER2jbqTy8RfKpjxE--26">
          <mxGeometry y="26" width="140" height="8" as="geometry" />
        </mxCell>
        <mxCell id="xVkER2jbqTy8RfKpjxE--28" value="getPolicyObj()" style="text;strokeColor=none;fillColor=none;align=left;verticalAlign=top;spacingLeft=4;spacingRight=4;overflow=hidden;rotatable=0;points=[[0,0.5],[1,0.5]];portConstraint=eastwest;fontFamily=Verdana;fontSize=10;" vertex="1" parent="xVkER2jbqTy8RfKpjxE--26">
          <mxGeometry y="34" width="140" height="26" as="geometry" />
        </mxCell>
        <mxCell id="xVkER2jbqTy8RfKpjxE--50" style="edgeStyle=orthogonalEdgeStyle;rounded=0;orthogonalLoop=1;jettySize=auto;html=1;exitX=0;exitY=0.5;exitDx=0;exitDy=0;fontFamily=Verdana;fontSize=10;endArrow=baseDash;endFill=0;" edge="1" parent="WIyWlLk6GJQsqaUBKTNV-1" source="xVkER2jbqTy8RfKpjxE--29">
          <mxGeometry relative="1" as="geometry">
            <mxPoint x="320" y="300" as="targetPoint" />
          </mxGeometry>
        </mxCell>
        <mxCell id="xVkER2jbqTy8RfKpjxE--93" style="edgeStyle=orthogonalEdgeStyle;rounded=0;orthogonalLoop=1;jettySize=auto;html=1;exitX=1;exitY=0.75;exitDx=0;exitDy=0;entryX=1;entryY=0.5;entryDx=0;entryDy=0;fontFamily=Verdana;fontSize=10;endArrow=blockThin;endFill=1;" edge="1" parent="WIyWlLk6GJQsqaUBKTNV-1" source="xVkER2jbqTy8RfKpjxE--29" target="xVkER2jbqTy8RfKpjxE--57">
          <mxGeometry relative="1" as="geometry">
            <Array as="points">
              <mxPoint x="570" y="285" />
              <mxPoint x="570" y="584" />
            </Array>
          </mxGeometry>
        </mxCell>
        <mxCell id="xVkER2jbqTy8RfKpjxE--29" value="ComprehensivePolicyProducer" style="swimlane;fontStyle=1;align=center;verticalAlign=top;childLayout=stackLayout;horizontal=1;startSize=26;horizontalStack=0;resizeParent=1;resizeParentMax=0;resizeLast=0;collapsible=1;marginBottom=0;fontFamily=Verdana;fontSize=10;" vertex="1" parent="WIyWlLk6GJQsqaUBKTNV-1">
          <mxGeometry x="380" y="240" width="140" height="60" as="geometry" />
        </mxCell>
        <mxCell id="xVkER2jbqTy8RfKpjxE--30" value="" style="line;strokeWidth=1;fillColor=none;align=left;verticalAlign=middle;spacingTop=-1;spacingLeft=3;spacingRight=3;rotatable=0;labelPosition=right;points=[];portConstraint=eastwest;strokeColor=inherit;fontFamily=Verdana;fontSize=10;" vertex="1" parent="xVkER2jbqTy8RfKpjxE--29">
          <mxGeometry y="26" width="140" height="8" as="geometry" />
        </mxCell>
        <mxCell id="xVkER2jbqTy8RfKpjxE--31" value="getPolicyObj()" style="text;strokeColor=none;fillColor=none;align=left;verticalAlign=top;spacingLeft=4;spacingRight=4;overflow=hidden;rotatable=0;points=[[0,0.5],[1,0.5]];portConstraint=eastwest;fontFamily=Verdana;fontSize=10;" vertex="1" parent="xVkER2jbqTy8RfKpjxE--29">
          <mxGeometry y="34" width="140" height="26" as="geometry" />
        </mxCell>
        <mxCell id="xVkER2jbqTy8RfKpjxE--46" style="edgeStyle=orthogonalEdgeStyle;rounded=0;orthogonalLoop=1;jettySize=auto;html=1;exitX=0;exitY=0.5;exitDx=0;exitDy=0;fontFamily=Verdana;fontSize=10;endArrow=baseDash;endFill=0;" edge="1" parent="WIyWlLk6GJQsqaUBKTNV-1" source="xVkER2jbqTy8RfKpjxE--28">
          <mxGeometry relative="1" as="geometry">
            <mxPoint x="320" y="310" as="targetPoint" />
          </mxGeometry>
        </mxCell>
        <mxCell id="xVkER2jbqTy8RfKpjxE--86" style="edgeStyle=orthogonalEdgeStyle;rounded=0;orthogonalLoop=1;jettySize=auto;html=1;exitX=0;exitY=0.5;exitDx=0;exitDy=0;fontFamily=Verdana;fontSize=10;endArrow=baseDash;endFill=0;" edge="1" parent="WIyWlLk6GJQsqaUBKTNV-1" source="xVkER2jbqTy8RfKpjxE--51">
          <mxGeometry relative="1" as="geometry">
            <mxPoint x="330" y="500" as="targetPoint" />
          </mxGeometry>
        </mxCell>
        <mxCell id="xVkER2jbqTy8RfKpjxE--51" value="BodyInjurLiability" style="swimlane;fontStyle=1;align=center;verticalAlign=top;childLayout=stackLayout;horizontal=1;startSize=26;horizontalStack=0;resizeParent=1;resizeParentMax=0;resizeLast=0;collapsible=1;marginBottom=0;fontFamily=Verdana;fontSize=10;" vertex="1" parent="WIyWlLk6GJQsqaUBKTNV-1">
          <mxGeometry x="380" y="410" width="140" height="60" as="geometry" />
        </mxCell>
        <mxCell id="xVkER2jbqTy8RfKpjxE--52" value="" style="line;strokeWidth=1;fillColor=none;align=left;verticalAlign=middle;spacingTop=-1;spacingLeft=3;spacingRight=3;rotatable=0;labelPosition=right;points=[];portConstraint=eastwest;strokeColor=inherit;fontFamily=Verdana;fontSize=10;" vertex="1" parent="xVkER2jbqTy8RfKpjxE--51">
          <mxGeometry y="26" width="140" height="8" as="geometry" />
        </mxCell>
        <mxCell id="xVkER2jbqTy8RfKpjxE--53" value="getInsurDescription" style="text;strokeColor=none;fillColor=none;align=left;verticalAlign=top;spacingLeft=4;spacingRight=4;overflow=hidden;rotatable=0;points=[[0,0.5],[1,0.5]];portConstraint=eastwest;fontFamily=Verdana;fontSize=10;" vertex="1" parent="xVkER2jbqTy8RfKpjxE--51">
          <mxGeometry y="34" width="140" height="26" as="geometry" />
        </mxCell>
        <mxCell id="xVkER2jbqTy8RfKpjxE--82" style="edgeStyle=orthogonalEdgeStyle;rounded=0;orthogonalLoop=1;jettySize=auto;html=1;exitX=0;exitY=0.5;exitDx=0;exitDy=0;fontFamily=Verdana;fontSize=10;endArrow=baseDash;endFill=0;" edge="1" parent="WIyWlLk6GJQsqaUBKTNV-1" source="xVkER2jbqTy8RfKpjxE--54">
          <mxGeometry relative="1" as="geometry">
            <mxPoint x="330" y="510" as="targetPoint" />
          </mxGeometry>
        </mxCell>
        <mxCell id="xVkER2jbqTy8RfKpjxE--54" value="CollisionCoverage" style="swimlane;fontStyle=1;align=center;verticalAlign=top;childLayout=stackLayout;horizontal=1;startSize=26;horizontalStack=0;resizeParent=1;resizeParentMax=0;resizeLast=0;collapsible=1;marginBottom=0;fontFamily=Verdana;fontSize=10;" vertex="1" parent="WIyWlLk6GJQsqaUBKTNV-1">
          <mxGeometry x="380" y="480" width="140" height="60" as="geometry" />
        </mxCell>
        <mxCell id="xVkER2jbqTy8RfKpjxE--55" value="" style="line;strokeWidth=1;fillColor=none;align=left;verticalAlign=middle;spacingTop=-1;spacingLeft=3;spacingRight=3;rotatable=0;labelPosition=right;points=[];portConstraint=eastwest;strokeColor=inherit;fontFamily=Verdana;fontSize=10;" vertex="1" parent="xVkER2jbqTy8RfKpjxE--54">
          <mxGeometry y="26" width="140" height="8" as="geometry" />
        </mxCell>
        <mxCell id="xVkER2jbqTy8RfKpjxE--56" value="getInsurDescription" style="text;strokeColor=none;fillColor=none;align=left;verticalAlign=top;spacingLeft=4;spacingRight=4;overflow=hidden;rotatable=0;points=[[0,0.5],[1,0.5]];portConstraint=eastwest;fontFamily=Verdana;fontSize=10;" vertex="1" parent="xVkER2jbqTy8RfKpjxE--54">
          <mxGeometry y="34" width="140" height="26" as="geometry" />
        </mxCell>
        <mxCell id="xVkER2jbqTy8RfKpjxE--78" style="edgeStyle=orthogonalEdgeStyle;rounded=0;orthogonalLoop=1;jettySize=auto;html=1;exitX=0;exitY=0.5;exitDx=0;exitDy=0;fontFamily=Verdana;fontSize=10;endArrow=baseDash;endFill=0;" edge="1" parent="WIyWlLk6GJQsqaUBKTNV-1" source="xVkER2jbqTy8RfKpjxE--57">
          <mxGeometry relative="1" as="geometry">
            <mxPoint x="330" y="585" as="targetPoint" />
          </mxGeometry>
        </mxCell>
        <mxCell id="xVkER2jbqTy8RfKpjxE--57" value="ComprehensiveCoverage" style="swimlane;fontStyle=1;align=center;verticalAlign=top;childLayout=stackLayout;horizontal=1;startSize=26;horizontalStack=0;resizeParent=1;resizeParentMax=0;resizeLast=0;collapsible=1;marginBottom=0;fontFamily=Verdana;fontSize=10;" vertex="1" parent="WIyWlLk6GJQsqaUBKTNV-1">
          <mxGeometry x="380" y="554.5" width="140" height="60" as="geometry" />
        </mxCell>
        <mxCell id="xVkER2jbqTy8RfKpjxE--58" value="" style="line;strokeWidth=1;fillColor=none;align=left;verticalAlign=middle;spacingTop=-1;spacingLeft=3;spacingRight=3;rotatable=0;labelPosition=right;points=[];portConstraint=eastwest;strokeColor=inherit;fontFamily=Verdana;fontSize=10;" vertex="1" parent="xVkER2jbqTy8RfKpjxE--57">
          <mxGeometry y="26" width="140" height="8" as="geometry" />
        </mxCell>
        <mxCell id="xVkER2jbqTy8RfKpjxE--59" value="getInsurDescription" style="text;strokeColor=none;fillColor=none;align=left;verticalAlign=top;spacingLeft=4;spacingRight=4;overflow=hidden;rotatable=0;points=[[0,0.5],[1,0.5]];portConstraint=eastwest;fontFamily=Verdana;fontSize=10;" vertex="1" parent="xVkER2jbqTy8RfKpjxE--57">
          <mxGeometry y="34" width="140" height="26" as="geometry" />
        </mxCell>
        <mxCell id="xVkER2jbqTy8RfKpjxE--74" style="edgeStyle=orthogonalEdgeStyle;rounded=0;orthogonalLoop=1;jettySize=auto;html=1;exitX=0;exitY=0.5;exitDx=0;exitDy=0;fontFamily=Verdana;fontSize=10;endArrow=baseDash;endFill=0;" edge="1" parent="WIyWlLk6GJQsqaUBKTNV-1" source="xVkER2jbqTy8RfKpjxE--60">
          <mxGeometry relative="1" as="geometry">
            <mxPoint x="330" y="680" as="targetPoint" />
            <Array as="points">
              <mxPoint x="330" y="650" />
            </Array>
          </mxGeometry>
        </mxCell>
        <mxCell id="xVkER2jbqTy8RfKpjxE--60" value="PersonInjuryProtection" style="swimlane;fontStyle=1;align=center;verticalAlign=top;childLayout=stackLayout;horizontal=1;startSize=26;horizontalStack=0;resizeParent=1;resizeParentMax=0;resizeLast=0;collapsible=1;marginBottom=0;fontFamily=Verdana;fontSize=10;" vertex="1" parent="WIyWlLk6GJQsqaUBKTNV-1">
          <mxGeometry x="380" y="620" width="140" height="60" as="geometry" />
        </mxCell>
        <mxCell id="xVkER2jbqTy8RfKpjxE--61" value="" style="line;strokeWidth=1;fillColor=none;align=left;verticalAlign=middle;spacingTop=-1;spacingLeft=3;spacingRight=3;rotatable=0;labelPosition=right;points=[];portConstraint=eastwest;strokeColor=inherit;fontFamily=Verdana;fontSize=10;" vertex="1" parent="xVkER2jbqTy8RfKpjxE--60">
          <mxGeometry y="26" width="140" height="8" as="geometry" />
        </mxCell>
        <mxCell id="xVkER2jbqTy8RfKpjxE--62" value="getInsurDescription" style="text;strokeColor=none;fillColor=none;align=left;verticalAlign=top;spacingLeft=4;spacingRight=4;overflow=hidden;rotatable=0;points=[[0,0.5],[1,0.5]];portConstraint=eastwest;fontFamily=Verdana;fontSize=10;" vertex="1" parent="xVkER2jbqTy8RfKpjxE--60">
          <mxGeometry y="34" width="140" height="26" as="geometry" />
        </mxCell>
        <mxCell id="xVkER2jbqTy8RfKpjxE--70" style="edgeStyle=orthogonalEdgeStyle;rounded=0;orthogonalLoop=1;jettySize=auto;html=1;entryX=1;entryY=0.5;entryDx=0;entryDy=0;fontFamily=Verdana;fontSize=10;endArrow=baseDash;endFill=0;" edge="1" parent="WIyWlLk6GJQsqaUBKTNV-1" source="xVkER2jbqTy8RfKpjxE--63" target="xVkER2jbqTy8RfKpjxE--1">
          <mxGeometry relative="1" as="geometry" />
        </mxCell>
        <mxCell id="xVkER2jbqTy8RfKpjxE--63" value="LuxeryCarInsurance" style="swimlane;fontStyle=1;align=center;verticalAlign=top;childLayout=stackLayout;horizontal=1;startSize=26;horizontalStack=0;resizeParent=1;resizeParentMax=0;resizeLast=0;collapsible=1;marginBottom=0;fontFamily=Verdana;fontSize=10;" vertex="1" parent="WIyWlLk6GJQsqaUBKTNV-1">
          <mxGeometry x="380" y="690" width="140" height="60" as="geometry" />
        </mxCell>
        <mxCell id="xVkER2jbqTy8RfKpjxE--64" value="" style="line;strokeWidth=1;fillColor=none;align=left;verticalAlign=middle;spacingTop=-1;spacingLeft=3;spacingRight=3;rotatable=0;labelPosition=right;points=[];portConstraint=eastwest;strokeColor=inherit;fontFamily=Verdana;fontSize=10;" vertex="1" parent="xVkER2jbqTy8RfKpjxE--63">
          <mxGeometry y="26" width="140" height="8" as="geometry" />
        </mxCell>
        <mxCell id="xVkER2jbqTy8RfKpjxE--65" value="getInsurDescription" style="text;strokeColor=none;fillColor=none;align=left;verticalAlign=top;spacingLeft=4;spacingRight=4;overflow=hidden;rotatable=0;points=[[0,0.5],[1,0.5]];portConstraint=eastwest;fontFamily=Verdana;fontSize=10;" vertex="1" parent="xVkER2jbqTy8RfKpjxE--63">
          <mxGeometry y="34" width="140" height="26" as="geometry" />
        </mxCell>
      </root>
    </mxGraphModel>
  </diagram>
</mxfile>
